<svg xmlns="http://www.w3.org/2000/svg" id="Layer_1" data-name="Layer 1" viewBox="0 0 231.75 82.47"><defs><style>      .cls-1 {        fill: #6d6a60;      }      .cls-1, .cls-2, .cls-3, .cls-4, .cls-5, .cls-6 {        stroke-width: 0px;      }      .cls-2 {        fill: #010101;      }      .cls-3 {        fill: #c7cac0;      }      .cls-4 {        fill: #3f3e34;      }      .cls-5 {        fill: #aaa99c;      }      .cls-6 {        fill: #8d8e89;      }    </style></defs><rect class="cls-4" x="6.29" y="35.78" width="39.98" height="41.76"></rect><rect class="cls-1" x="50.47" y="35.78" width="39.97" height="41.76"></rect><rect class="cls-6" x="94.63" y="35.78" width="39.98" height="41.76"></rect><rect class="cls-5" x="138.79" y="35.78" width="39.98" height="41.76"></rect><rect class="cls-3" x="182.95" y="35.78" width="39.98" height="41.76"></rect><g><path class="cls-2" d="m4.36,8.09c0-.44-.05-2.85-.08-3.14-.05-.41-.27-.48-.73-.48h-.93c-.08,0-.14-.02-.14-.12v-.46c0-.07.05-.08.12-.08.22,0,.97.05,2.49.05.44,0,2.14-.05,2.53-.05,2.19,0,4.02.25,5.51,1.53,1.1.95,1.88,2.36,1.88,4.33s-.56,3.24-1.68,4.46c-1.63,1.8-3.97,1.8-5.28,1.8-1.07,0-2.36-.05-3.12-.05-1.48,0-2.16.05-2.39.05-.08,0-.12-.03-.12-.12v-.44c0-.07.05-.1.14-.1h1.14c.32,0,.51-.14.54-.41.05-.36.12-4.17.12-5.5v-1.27Zm1.56,1.65c0,.22.02,3.11.03,4.16,0,.34.07.61.29.95.27.36.95.54,1.8.54,1.73,0,3.14-.75,3.99-1.83.71-.88,1.24-2.27,1.24-3.82,0-1.32-.58-2.85-1.39-3.75-.88-.97-2.38-1.63-4.26-1.63-.37,0-1.07,0-1.36.17-.24.15-.31.42-.32.8-.02.71-.02,2.94-.02,3.21v1.2Z"></path><path class="cls-2" d="m19.21,15.03c-1.2-.73-2.49-2.56-2.49-5.04,0-1.04.27-2.65,1.58-4.23,1.49-1.82,3.17-2.15,4.6-2.15,1.07,0,2.46.22,3.8,1.34,1.24,1.07,2.32,2.73,2.32,5.07,0,1.24-.39,2.53-1.27,3.72-1.04,1.37-2.55,2.39-4.89,2.39-.83,0-2.31-.27-3.65-1.1Zm8.14-4.87c0-3.72-2.65-5.9-4.53-5.9-.25,0-1.41-.2-2.68,1-1.14,1.09-1.7,2.8-1.7,4.19,0,4.46,3.11,6.04,4.55,6.04,3.73,0,4.36-3.82,4.36-5.33Z"></path><path class="cls-2" d="m33.98,15.78c-1.15-.46-1.75-1.21-2.02-2.27-.2-.76-.27-1.9-.27-4.12v-4.04c0-.59-.12-.87-.65-.87h-.8c-.1,0-.12-.03-.12-.15v-.37c0-.1.02-.14.15-.14.17,0,1,.05,2.32.05s2.14-.05,2.32-.05c.14,0,.15.03.15.1v.44c0,.08-.02.12-.14.12h-.85c-.49,0-.78.32-.81.7-.02.15-.03,1.34-.03,2.21v1.12c0,.9.07,3.05.08,3.6.02.78.15,1.58.54,2.15.63.92,1.71,1.22,2.7,1.22s1.95-.32,2.55-.93c.66-.71.88-1.73.88-2.99v-3.63c0-1.29-.03-2.27-.08-2.7-.05-.44-.32-.75-.76-.75h-.75c-.1,0-.12-.05-.12-.14v-.41c0-.08.02-.12.12-.12.17,0,.95.05,2.09.05s1.71-.05,1.87-.05.17.07.17.12v.37c0,.1-.02.17-.1.17h-.7c-.63,0-.68.48-.73.68-.03.17-.03,2.58-.03,2.82s-.03,3.21-.08,3.87c-.1,1.39-.48,2.46-1.43,3.27-.68.63-1.71,1.02-3.19,1.02-.88,0-1.73-.12-2.29-.36Z"></path><path class="cls-2" d="m44.99,8.5c0-.63-.03-2.7-.05-3-.05-.98-.32-1.02-1.1-1.02h-.53c-.1,0-.14-.03-.14-.12v-.42c0-.08.03-.12.14-.12.27,0,1.04.05,2.26.05.54,0,1.56-.05,2.15-.05,1.32,0,2.41.12,3,.46.97.53,1.31,1.31,1.31,2.31,0,1.68-.75,2.1-2.07,2.8l.05.03c1.65.54,2.75,1.56,2.75,3.36,0,.87-.53,2.05-1.31,2.54-.71.44-1.68.61-3.24.61-1.17,0-1.83-.05-2.55-.05-.85,0-1.85.05-2.17.05-.2,0-.24-.03-.24-.1v-.44c0-.08.03-.12.15-.12h.81c.53,0,.61-.2.68-.75.05-.39.08-2.63.08-4.02v-2Zm1.49.66c.32.03.61.03.9.03.97,0,1.73-.15,2.14-.44.7-.53.95-1.29.95-2.04,0-.65-.2-1.32-.83-1.78-.61-.42-1.46-.58-2.32-.58-.24,0-.42-.02-.56.02-.14.03-.24.15-.24.31-.02.34-.03,1.82-.03,3.22v1.26Zm0,1.63v2.34c0,1.56.37,2.26,1.78,2.26s2.73-.68,2.73-2.7c0-1.37-.7-2.27-1.7-2.66-.7-.27-1.49-.29-2.27-.29h-.54v1.05Z"></path><path class="cls-2" d="m56.22,8.28c0-1.09-.03-2.88-.05-3.19-.03-.44-.12-.61-.63-.61h-.8c-.1,0-.12-.08-.12-.17v-.37c0-.08.02-.12.12-.12.19,0,.8.05,2.21.05,1.65,0,2.36-.05,2.51-.05.14,0,.15.05.15.14v.39c0,.08-.03.14-.17.14h-1.02c-.53,0-.59.17-.59.66,0,.22-.05,2.78-.05,3.97v1.46c0,.29,0,3.95.05,4.65.37.03,3.73.07,4.26,0,1-.15,2.02-2.19,2.26-2.85.03-.07.07-.1.14-.07l.27.1c.05.03.05.05.03.15-.05.12-.73,2.92-.83,3.38-.22-.02-1.54-.03-3.05-.03-1.51-.02-3.17-.02-4.09-.02-.66,0-1.15.02-1.51.02-.34.02-.54.03-.66.03s-.14-.03-.14-.12v-.42c0-.08.02-.12.12-.12h.81c.63,0,.73-.24.73-.46,0-.32.05-4.55.05-5.58v-.95Z"></path><path class="cls-2" d="m68.61,9.38c.14,0,1.95-.07,2.15-.1.49-.08.63-.22.78-.75.05-.17.12-.51.14-.83,0-.08.05-.12.12-.12l.42.02c.08,0,.12.07.1.14-.05.29-.05,1.68-.05,1.93,0,.59.07,1.41.1,1.76,0,.08-.03.12-.1.14l-.37.05c-.08.02-.12-.03-.14-.15-.03-.22-.14-.61-.19-.8-.1-.36-.29-.61-.73-.66-.8-.08-1.97-.08-2.24-.08v1.05c0,.92.03,2.56.03,2.9.02.88.44,1.22.97,1.32.34.07.83.12,1.26.12.29,0,1.14-.02,1.49-.05.29-.03,1.04-.22,1.48-.59.2-.17,1.15-1.39,1.39-1.78.05-.08.1-.15.2-.1l.27.15c.08.05.08.1.03.24l-.9,2.49c-.05.15-.17.25-.37.25-.08,0-.46-.02-1.48-.03-1.02,0-2.66-.02-5.31-.02-.63,0-1.1.02-1.44.02-.36.02-.58.03-.73.03-.1,0-.15-.03-.15-.12v-.46c0-.07.05-.08.17-.08h.68c.78,0,.85-.12.85-.75v-5.68c0-1.41-.03-3.53-.05-3.7-.07-.54-.24-.66-.87-.66h-.61c-.08,0-.14-.02-.14-.12v-.46c0-.05.03-.08.12-.08.37,0,.97.05,2.09.05h.75c1.68,0,3.36-.02,5.04-.02.27,0,.59-.03.68-.03s.12.03.14.08c.07.24.81,2.56.87,2.73.02.07.02.12-.05.15l-.25.14c-.05.03-.12-.02-.14-.05-.03-.07-1.29-1.68-1.7-1.93-.36-.24-.83-.44-1.29-.46l-3.02-.07v4.97Z"></path><path class="cls-2" d="m84.3,11.16c-.17.42-1.1,3-1.19,3.36-.02.12-.05.29-.05.37,0,.24.2.37.58.37h.8c.12,0,.17.03.17.12v.39c0,.12-.05.15-.14.15-.24,0-.93-.05-1.93-.05-1.24,0-1.61.05-1.85.05-.08,0-.12-.03-.12-.14v-.41c0-.08.07-.12.14-.12h.59c.51,0,.75-.24.98-.78.12-.27,1.36-3.41,1.85-4.8.12-.34,1.49-3.99,1.65-4.45.05-.17.14-.39.02-.58-.05-.07-.12-.15-.12-.22,0-.05.03-.12.15-.15.48-.1,1.22-.61,1.41-.85.08-.08.14-.15.22-.15.1,0,.14.1.19.29.32,1.07,1.65,4.87,1.97,5.96.39,1.32,1.49,4.48,1.73,4.97.29.56.73.76,1.15.76h.56c.1,0,.14.05.14.12v.42c0,.08-.05.12-.17.12-.31,0-.66-.05-2.04-.05s-2,.05-2.39.05c-.08,0-.14-.05-.14-.15v-.39c0-.1.05-.12.15-.12h.42c.47,0,.63-.17.51-.65-.14-.61-.83-2.78-1.07-3.46h-4.17Zm3.97-.61c-.15-.51-1.53-4.75-1.61-5.01-.05-.12-.08-.24-.14-.24-.07,0-.14.12-.19.25-.08.22-1.7,4.56-1.82,4.99h3.75Z"></path><path class="cls-2" d="m101.31,11.38c0,.8.02,3.1.03,3.34.03.37.2.54.56.54h1.09c.12,0,.14.05.14.12v.41c0,.08-.02.14-.15.14-.24,0-.76-.05-2.36-.05-1.49,0-2.15.05-2.34.05-.12,0-.14-.05-.14-.12v-.42c0-.08.02-.12.1-.12h.73c.58,0,.7-.08.75-.54.02-.17.07-2.82.07-4.78v-1.95c0-1.12-.02-2.97-.03-3.14-.03-.34-.2-.37-.66-.37h-.97c-.08,0-.1-.03-.1-.14v-.41c0-.08.02-.12.1-.12.19,0,.8.05,2.41.05.31,0,1.31-.05,1.87-.05,1.92,0,2.82.19,3.78.85.8.54,1.29,1.49,1.29,2.46,0,2.14-1.61,3.46-4.31,3.46-.63,0-1.31-.02-1.85-.08v.88Zm0-1.49c.34.1.9.15,1.56.15,1.04,0,1.95-.56,2.39-1.15.37-.49.44-1.12.44-1.71,0-2.22-2.07-2.82-3.07-2.82-.29,0-.98,0-1.32.12v5.41Z"></path><path class="cls-2" d="m110.15,11.16c-.17.42-1.1,3-1.19,3.36-.02.12-.05.29-.05.37,0,.24.2.37.58.37h.8c.12,0,.17.03.17.12v.39c0,.12-.05.15-.14.15-.24,0-.93-.05-1.93-.05-1.24,0-1.61.05-1.85.05-.08,0-.12-.03-.12-.14v-.41c0-.08.07-.12.14-.12h.59c.51,0,.75-.24.98-.78.12-.27,1.36-3.41,1.85-4.8.12-.34,1.49-3.99,1.65-4.45.05-.17.14-.39.02-.58-.05-.07-.12-.15-.12-.22,0-.05.03-.12.15-.15.48-.1,1.22-.61,1.41-.85.08-.08.14-.15.22-.15.1,0,.14.1.19.29.32,1.07,1.65,4.87,1.97,5.96.39,1.32,1.49,4.48,1.73,4.97.29.56.73.76,1.15.76h.56c.1,0,.14.05.14.12v.42c0,.08-.05.12-.17.12-.31,0-.66-.05-2.04-.05s-2,.05-2.39.05c-.08,0-.14-.05-.14-.15v-.39c0-.1.05-.12.15-.12h.42c.47,0,.63-.17.51-.65-.14-.61-.83-2.78-1.07-3.46h-4.17Zm3.97-.61c-.15-.51-1.53-4.75-1.61-5.01-.05-.12-.08-.24-.14-.24-.07,0-.14.12-.19.25-.08.22-1.7,4.56-1.82,4.99h3.75Z"></path><path class="cls-2" d="m121.41,8.77c0-.41-.05-3.46-.07-3.72-.03-.41-.2-.58-.85-.58h-.98c-.08,0-.14-.03-.14-.1v-.46c0-.07.05-.1.12-.1.2,0,1.07.05,2.65.05s2.05-.05,2.29-.05c.08,0,.12.05.12.12v.42c0,.08-.05.12-.14.12h-.8c-.34,0-.59.14-.59.48,0,.17-.05,3.92-.05,4.12v1.31c0,.17.05,4.09.05,4.28,0,.53.25.61.8.61h.7c.08,0,.14.03.14.12v.44c0,.07-.05.1-.15.1-.2,0-.88-.05-2.36-.05-1.61,0-2.34.05-2.53.05-.08,0-.14-.03-.14-.1v-.46c0-.07.05-.1.14-.1h.95c.34,0,.7-.05.76-.49.03-.25.08-3.92.08-4.82v-1.19Z"></path><path class="cls-2" d="m127.79,6.07c0-1-.51-1.56-1.12-1.58l-.7-.02c-.08,0-.1-.07-.1-.12v-.44c0-.07.02-.1.1-.1s.22.02.48.02c.25.02.63.03,1.2.03s.93-.03,1.14-.03c.22,0,.36.07.49.22.08.1,3.38,4.38,3.56,4.62.19.24,3.05,3.75,3.46,4.29h.07v-2.02c0-1.51-.02-2.34-.05-3.19-.02-.66-.1-2.32-.2-2.61-.14-.42-.46-.66-.93-.66h-.54c-.07,0-.1-.03-.1-.12v-.44c0-.07.03-.1.1-.1.24,0,.78.05,1.87.05,1.02,0,1.43-.05,1.65-.05.12,0,.14.05.14.12v.42c0,.07-.03.12-.1.12h-.46c-.46,0-.63.29-.66.93-.07,1.14-.07,2.82-.07,3.92v6.35c0,.24-.02.41-.08.41-.2,0-.36-.2-.41-.27-.02-.03-1.02-1.29-2.07-2.61-1.19-1.48-2.43-3.04-2.53-3.14-.19-.17-3.31-4.09-3.41-4.23h-.1v3.77c0,1.58.14,4.34.17,4.68.07.66.17.98.63.98h.51c.12,0,.14.05.14.15v.37c0,.1-.02.14-.14.14-.17,0-1.19-.05-1.65-.05-.36,0-1.53.05-1.7.05-.07,0-.08-.03-.08-.12v-.44c0-.05.02-.1.1-.1h.58c.49,0,.68-.2.76-1.04.03-.32.07-2.26.07-5.28v-2.88Z"></path><path class="cls-2" d="m144.03,4.47h-.42c-.54,0-2.02,0-2.68.2-.76.24-1.27,1.43-1.51,1.97-.03.08-.08.1-.17.08l-.31-.08c-.05-.02-.1-.03-.07-.14.17-.61.76-2.8.8-2.99.03-.22.1-.27.17-.27.08,0,.14.02.2.07l.22.15c.31.22.48.27.97.29.9.03,1.61.1,3.21.1h.81c1.85,0,2.58-.07,3.41-.1.37-.02.59-.07.88-.24l.32-.2c.08-.05.14-.07.2-.07.08,0,.12.05.15.27.03.2.36,2.31.49,3.05.02.08-.02.12-.1.14l-.27.07c-.07.02-.08,0-.14-.12-.14-.32-.65-1.63-1.2-1.9-.51-.25-2.1-.29-2.94-.29h-.48v4.84c0,.24,0,4.99.02,5.28.03.42.17.68.58.68h1.07c.15,0,.17.05.17.17v.36c0,.08-.02.14-.17.14-.17,0-.71-.05-2.38-.05s-2.34.05-2.58.05c-.14,0-.15-.07-.15-.17v-.32c0-.12.02-.17.12-.17h1.15c.34,0,.54-.2.56-.41.05-.49.05-5.7.05-6.02v-4.36Z"></path><path class="cls-2" d="m153.44,8.77c0-.41-.05-3.46-.07-3.72-.03-.41-.2-.58-.85-.58h-.98c-.08,0-.14-.03-.14-.1v-.46c0-.07.05-.1.12-.1.2,0,1.07.05,2.65.05s2.05-.05,2.29-.05c.08,0,.12.05.12.12v.42c0,.08-.05.12-.14.12h-.8c-.34,0-.59.14-.59.48,0,.17-.05,3.92-.05,4.12v1.31c0,.17.05,4.09.05,4.28,0,.53.25.61.8.61h.7c.08,0,.14.03.14.12v.44c0,.07-.05.1-.15.1-.2,0-.88-.05-2.36-.05-1.61,0-2.34.05-2.53.05-.08,0-.14-.03-.14-.1v-.46c0-.07.05-.1.14-.1h.95c.34,0,.7-.05.76-.49.03-.25.08-3.92.08-4.82v-1.19Z"></path><path class="cls-2" d="m159.82,6.07c0-1-.51-1.56-1.12-1.58l-.7-.02c-.08,0-.1-.07-.1-.12v-.44c0-.07.02-.1.1-.1s.22.02.48.02c.25.02.63.03,1.2.03s.93-.03,1.14-.03c.22,0,.36.07.49.22.08.1,3.38,4.38,3.56,4.62.19.24,3.05,3.75,3.46,4.29h.07v-2.02c0-1.51-.02-2.34-.05-3.19-.02-.66-.1-2.32-.2-2.61-.14-.42-.46-.66-.93-.66h-.54c-.07,0-.1-.03-.1-.12v-.44c0-.07.03-.1.1-.1.24,0,.78.05,1.87.05,1.02,0,1.43-.05,1.65-.05.12,0,.14.05.14.12v.42c0,.07-.03.12-.1.12h-.46c-.46,0-.63.29-.66.93-.07,1.14-.07,2.82-.07,3.92v6.35c0,.24-.02.41-.08.41-.2,0-.36-.2-.41-.27-.02-.03-1.02-1.29-2.07-2.61-1.19-1.48-2.43-3.04-2.53-3.14-.19-.17-3.31-4.09-3.41-4.23h-.1v3.77c0,1.58.14,4.34.17,4.68.07.66.17.98.63.98h.51c.12,0,.14.05.14.15v.37c0,.1-.02.14-.14.14-.17,0-1.19-.05-1.65-.05-.36,0-1.53.05-1.7.05-.07,0-.08-.03-.08-.12v-.44c0-.05.02-.1.1-.1h.58c.49,0,.68-.2.76-1.04.03-.32.07-2.26.07-5.28v-2.88Z"></path><path class="cls-2" d="m181.42,12.13c0-.61-.19-.78-.7-.78h-.71c-.08,0-.12-.03-.12-.1v-.42c0-.1.02-.14.1-.14.24,0,1,.05,2.15.05,1.22,0,1.76-.05,2-.05.12,0,.14.05.14.12v.41c0,.07-.02.14-.12.14h-.66c-.31,0-.53.12-.53.64v2.24c0,.24.07.41.07.54s-.1.2-.27.27c-1.37.7-2.73,1.09-4.63,1.09-1.51,0-3.58-.56-4.75-1.93-1.04-1.17-1.56-2.61-1.56-4.67,0-1.54.66-3.19,1.92-4.31,1.2-1.04,2.73-1.61,4.77-1.61,1.46,0,2.77.54,3.34.98.19.15.29.12.39-.02l.25-.31c.07-.07.14-.15.24-.15.12,0,.15.08.15.2l.05,3.24c0,.08-.02.15-.08.15l-.31.03c-.07,0-.12-.05-.14-.14-.14-.48-.42-1.27-1.02-2-.51-.63-1.56-1.39-3.09-1.39-1.17,0-2.22.29-3.24,1.37-.92.97-1.49,2.38-1.49,3.9,0,2,.56,3.75,1.61,4.75.85.81,1.88,1.2,2.99,1.2,1.36,0,2.19-.24,2.78-.58.39-.24.46-.61.46-1.49v-1.26Z"></path><path class="cls-2" d="m191.58,8.28c0-1.09-.03-2.88-.05-3.19-.03-.44-.12-.61-.63-.61h-.8c-.1,0-.12-.08-.12-.17v-.37c0-.08.02-.12.12-.12.19,0,.8.05,2.21.05,1.65,0,2.36-.05,2.51-.05.14,0,.15.05.15.14v.39c0,.08-.03.14-.17.14h-1.02c-.53,0-.59.17-.59.66,0,.22-.05,2.78-.05,3.97v1.46c0,.29,0,3.95.05,4.65.37.03,3.73.07,4.26,0,1-.15,2.02-2.19,2.26-2.85.03-.07.07-.1.14-.07l.27.1c.05.03.05.05.03.15-.05.12-.73,2.92-.83,3.38-.22-.02-1.54-.03-3.05-.03-1.51-.02-3.17-.02-4.09-.02-.66,0-1.15.02-1.51.02-.34.02-.54.03-.66.03s-.14-.03-.14-.12v-.42c0-.08.02-.12.12-.12h.81c.63,0,.73-.24.73-.46,0-.32.05-4.55.05-5.58v-.95Z"></path><path class="cls-2" d="m203.37,4.47h-.42c-.54,0-2.02,0-2.68.2-.76.24-1.27,1.43-1.51,1.97-.03.08-.08.1-.17.08l-.31-.08c-.05-.02-.1-.03-.07-.14.17-.61.76-2.8.8-2.99.03-.22.1-.27.17-.27.08,0,.14.02.2.07l.22.15c.31.22.48.27.97.29.9.03,1.61.1,3.21.1h.81c1.85,0,2.58-.07,3.41-.1.37-.02.59-.07.88-.24l.32-.2c.08-.05.14-.07.2-.07.08,0,.12.05.15.27.03.2.36,2.31.49,3.05.02.08-.02.12-.1.14l-.27.07c-.07.02-.08,0-.14-.12-.14-.32-.65-1.63-1.2-1.9-.51-.25-2.1-.29-2.94-.29h-.48v4.84c0,.24,0,4.99.02,5.28.03.42.17.68.58.68h1.07c.15,0,.17.05.17.17v.36c0,.08-.02.14-.17.14-.17,0-.71-.05-2.38-.05s-2.34.05-2.58.05c-.14,0-.15-.07-.15-.17v-.32c0-.12.02-.17.12-.17h1.15c.34,0,.54-.2.56-.41.05-.49.05-5.7.05-6.02v-4.36Z"></path><path class="cls-2" d="m212.82,8.09c0-.44-.05-2.85-.08-3.14-.05-.41-.27-.48-.73-.48h-.93c-.08,0-.14-.02-.14-.12v-.46c0-.07.05-.08.12-.08.22,0,.97.05,2.49.05.44,0,2.14-.05,2.53-.05,2.19,0,4.02.25,5.51,1.53,1.1.95,1.88,2.36,1.88,4.33s-.56,3.24-1.68,4.46c-1.63,1.8-3.97,1.8-5.28,1.8-1.07,0-2.36-.05-3.12-.05-1.48,0-2.16.05-2.39.05-.08,0-.12-.03-.12-.12v-.44c0-.07.05-.1.14-.1h1.14c.32,0,.51-.14.54-.41.05-.36.12-4.17.12-5.5v-1.27Zm1.56,1.65c0,.22.02,3.11.03,4.16,0,.34.07.61.29.95.27.36.95.54,1.8.54,1.73,0,3.14-.75,3.99-1.83.71-.88,1.24-2.27,1.24-3.82,0-1.32-.58-2.85-1.39-3.75-.88-.97-2.38-1.63-4.26-1.63-.37,0-1.07,0-1.36.17-.24.15-.31.42-.32.8-.02.71-.02,2.94-.02,3.21v1.2Z"></path><path class="cls-2" d="m225.01,15.08c0-.29.2-.95,1.05-.95.49,0,.95.39.95,1.02,0,.56-.42.93-.95.93-.37,0-1.05-.2-1.05-1Z"></path></g><g><path class="cls-2" d="m6.49,27.45c-.47-.44-.69-1.19-.69-1.81s.19-1.22.66-1.71c.33-.35.91-.65,1.62-.65.59,0,1.07.22,1.31.36.08.05.12.05.13,0l.05-.19s.03-.04.08-.04.07.01.07.1c0,.12.13,1.07.16,1.26,0,.03,0,.06-.03.06l-.1.03s-.05,0-.06-.05c-.09-.21-.23-.52-.5-.8-.27-.28-.61-.5-1.13-.5-1.16,0-1.62,1.03-1.62,1.97,0,.38.12,1.11.62,1.66.44.49.81.54,1.24.54.73,0,1.3-.4,1.6-.82.02-.03.03-.04.05-.02l.08.06s.03.03.01.06c-.39.56-1.02,1.09-1.93,1.09-.76,0-1.25-.24-1.64-.6Z"></path><path class="cls-2" d="m12.09,27.62c-.46-.28-.95-.98-.95-1.92,0-.39.1-1.01.6-1.61.57-.69,1.21-.82,1.75-.82.41,0,.94.08,1.45.51.47.41.89,1.04.89,1.93,0,.47-.15.96-.49,1.42-.39.52-.97.91-1.86.91-.32,0-.88-.1-1.39-.42Zm3.11-1.86c0-1.42-1.01-2.25-1.73-2.25-.1,0-.54-.08-1.02.38-.43.41-.65,1.07-.65,1.6,0,1.7,1.18,2.3,1.73,2.3,1.42,0,1.66-1.46,1.66-2.03Z"></path><path class="cls-2" d="m19.94,26.91c.09-.1.74-1.64.79-1.73.05-.09.75-1.61.77-1.74.01-.07.08-.08.15-.08.86,0,1.08-.02,1.15-.02.03,0,.04.02.04.05v.15s0,.06-.05.06h-.28c-.19,0-.21.12-.21.27,0,.19-.02,1.11-.02,1.55v.45c0,.32.02,1.37.02,1.5,0,.25.06.35.22.35h.38s.04.02.04.05v.15s0,.06-.06.06c-.08,0-.19-.02-.91-.02-.6,0-.85.02-.93.02-.04,0-.05-.02-.05-.06v-.15s0-.05.05-.05h.44c.11,0,.17-.04.18-.23,0-.08.01-1.2.01-1.68v-.41c0-.43,0-1.58-.02-1.64h-.01c-.06.08-.98,2.12-1.02,2.19-.04.08-.76,1.73-.78,1.79s-.08.16-.13.16c-.04,0-.07-.05-.1-.12-.02-.05-.85-2.09-.88-2.17-.12-.3-.71-1.75-.8-1.82-.03.09-.04,1.73-.04,1.8s0,1.44.01,1.67c.03.37.09.47.3.47h.32s.05.02.05.05v.16s0,.05-.06.05c-.07,0-.25-.02-.78-.02s-.78.02-.83.02c-.05,0-.06,0-.06-.06v-.16s0-.04.04-.04h.34c.25,0,.3-.17.34-.39.08-.46.1-2.12.1-2.23,0-.09,0-1.07,0-1.26,0-.15,0-.24-.27-.24h-.39s-.05-.02-.05-.05v-.17s0-.04.05-.04c.06,0,.24.02.79.02.3,0,.47-.02.55-.02.1,0,.14.03.17.11l1.44,3.45Z"></path><path class="cls-2" d="m26.94,26.91c.09-.1.74-1.64.79-1.73.05-.09.75-1.61.77-1.74.01-.07.08-.08.15-.08.86,0,1.08-.02,1.15-.02.03,0,.04.02.04.05v.15s0,.06-.05.06h-.28c-.19,0-.21.12-.21.27,0,.19-.02,1.11-.02,1.55v.45c0,.32.02,1.37.02,1.5,0,.25.06.35.22.35h.38s.05.02.05.05v.15s0,.06-.06.06c-.08,0-.19-.02-.91-.02-.6,0-.85.02-.93.02-.05,0-.05-.02-.05-.06v-.15s0-.05.05-.05h.44c.11,0,.17-.04.18-.23,0-.08.01-1.2.01-1.68v-.41c0-.43,0-1.58-.02-1.64h-.01c-.06.08-.98,2.12-1.02,2.19-.04.08-.76,1.73-.78,1.79s-.08.16-.13.16c-.04,0-.07-.05-.1-.12-.02-.05-.85-2.09-.88-2.17-.12-.3-.71-1.75-.8-1.82-.03.09-.04,1.73-.04,1.8s0,1.44.01,1.67c.03.37.09.47.3.47h.32s.05.02.05.05v.16s0,.05-.06.05c-.07,0-.25-.02-.78-.02s-.78.02-.83.02c-.05,0-.06,0-.06-.06v-.16s0-.04.04-.04h.34c.25,0,.3-.17.34-.39.08-.46.1-2.12.1-2.23,0-.09,0-1.07,0-1.26,0-.15,0-.24-.27-.24h-.39s-.05-.02-.05-.05v-.17s0-.04.05-.04c.06,0,.24.02.79.02.3,0,.47-.02.55-.02.1,0,.14.03.17.11l1.44,3.45Z"></path><path class="cls-2" d="m32.32,25.47c.05,0,.74-.03.82-.04.19-.03.24-.08.3-.28.02-.06.05-.19.05-.32,0-.03.02-.04.05-.04h.16s.05.03.04.06c-.02.11-.02.64-.02.74,0,.23.03.54.04.67,0,.03-.01.04-.04.05l-.14.02s-.05-.01-.05-.06c-.01-.08-.05-.23-.07-.3-.04-.14-.11-.23-.28-.25-.3-.03-.75-.03-.85-.03v.4c0,.35.01.98.01,1.11,0,.34.17.47.37.5.13.03.32.05.48.05.11,0,.43,0,.57-.02.11-.01.39-.08.56-.23.08-.06.44-.53.53-.68.02-.03.04-.06.08-.04l.1.06s.03.04.01.09l-.34.95c-.02.06-.06.1-.14.1-.03,0-.17,0-.56-.01-.39,0-1.02,0-2.02,0-.24,0-.42,0-.55,0-.14,0-.22.01-.28.01-.04,0-.06-.01-.06-.05v-.17s.02-.03.06-.03h.26c.3,0,.32-.05.32-.28v-2.17c0-.54-.01-1.35-.02-1.41-.03-.21-.09-.25-.33-.25h-.23s-.05,0-.05-.05v-.17s.01-.03.05-.03c.14,0,.37.02.8.02h.28c.64,0,1.28,0,1.92,0,.1,0,.23-.01.26-.01s.04.01.05.03c.03.09.31.98.33,1.04,0,.03,0,.04-.02.06l-.1.05s-.05,0-.05-.02c-.01-.03-.49-.64-.65-.74-.14-.09-.32-.17-.49-.17l-1.15-.03v1.9Z"></path><path class="cls-2" d="m36.62,25c0-.48,0-.89,0-1.08,0-.21-.08-.32-.25-.32h-.26s-.04-.02-.04-.05v-.16s0-.05.04-.05c.06,0,.26.02.8.02.36,0,.96-.02,1.08-.02.54,0,.96.16,1.21.39.21.21.34.5.34.74,0,.81-.37,1.11-1.2,1.29h0c.16.07.25.19.3.26.08.08.54.74.59.83.03.06.45.65.57.74.14.1.29.11.47.11.05,0,.05.03.05.05v.14s0,.06-.05.06c-.05,0-.22-.02-.5-.02-.19,0-.43.01-.52.02-.07-.06-.21-.28-.27-.37-.05-.08-.4-.69-.43-.74-.03-.05-.34-.51-.41-.6-.17-.2-.32-.38-.7-.38-.06,0-.12,0-.21.02v.36c0,.38,0,1.11.01,1.2.01.14.06.25.16.25h.41s.05.02.05.05v.14s0,.06-.07.06c-.07,0-.23-.02-.85-.02s-.74.02-.81.02c-.05,0-.05-.02-.05-.05v-.15s0-.05.03-.05h.27c.14,0,.25-.05.25-.22.01-.64.01-1.25.01-1.86v-.63Zm.58.64c.1.02.17.03.29.03,1.18,0,1.4-.81,1.4-1.08,0-.3-.14-.58-.32-.74-.25-.2-.54-.3-1.07-.3-.08,0-.16.01-.22.05-.04.03-.08.1-.08.21v1.83Z"></path><path class="cls-2" d="m41.79,27.45c-.47-.44-.69-1.19-.69-1.81s.19-1.22.66-1.71c.33-.35.91-.65,1.62-.65.59,0,1.07.22,1.31.36.08.05.12.05.13,0l.05-.19s.03-.04.08-.04.07.01.07.1c0,.12.13,1.07.16,1.26,0,.03,0,.06-.03.06l-.1.03s-.05,0-.06-.05c-.09-.21-.23-.52-.5-.8-.27-.28-.61-.5-1.13-.5-1.16,0-1.62,1.03-1.62,1.97,0,.38.12,1.11.62,1.66.44.49.81.54,1.24.54.73,0,1.3-.4,1.6-.82.02-.03.03-.04.05-.02l.08.06s.03.03.01.06c-.39.56-1.02,1.09-1.93,1.09-.76,0-1.25-.24-1.64-.6Z"></path><path class="cls-2" d="m47.16,25.23c0-.16-.02-1.32-.03-1.42-.01-.16-.08-.22-.32-.22h-.38s-.05-.01-.05-.04v-.17s.02-.04.05-.04c.08,0,.41.02,1.01.02s.78-.02.87-.02c.03,0,.05.02.05.05v.16s-.02.05-.05.05h-.3c-.13,0-.23.05-.23.18,0,.06-.02,1.49-.02,1.57v.5c0,.06.02,1.56.02,1.63,0,.2.1.23.3.23h.27s.05.01.05.05v.17s-.02.04-.06.04c-.08,0-.34-.02-.9-.02-.61,0-.89.02-.96.02-.03,0-.05-.01-.05-.04v-.17s.02-.04.05-.04h.36c.13,0,.27-.02.29-.19.01-.1.03-1.49.03-1.84v-.45Z"></path><path class="cls-2" d="m50.72,26.15c-.06.16-.42,1.15-.45,1.28,0,.05-.02.11-.02.14,0,.09.08.14.22.14h.3s.06.01.06.05v.15s-.02.06-.05.06c-.09,0-.36-.02-.74-.02-.47,0-.61.02-.71.02-.03,0-.04-.01-.04-.05v-.16s.03-.05.05-.05h.23c.19,0,.28-.09.38-.3.05-.1.52-1.3.71-1.83.05-.13.57-1.52.63-1.7.02-.06.05-.15,0-.22-.02-.03-.05-.06-.05-.08,0-.02.01-.04.06-.06.18-.04.47-.23.54-.32.03-.03.05-.06.08-.06.04,0,.05.04.07.11.12.41.63,1.86.75,2.27.15.5.57,1.71.66,1.9.11.21.28.29.44.29h.21s.05.02.05.05v.16s-.02.05-.06.05c-.12,0-.25-.02-.78-.02s-.76.02-.91.02c-.03,0-.05-.02-.05-.06v-.15s.02-.05.06-.05h.16c.18,0,.24-.06.19-.25-.05-.23-.32-1.06-.41-1.32h-1.59Zm1.51-.23c-.06-.19-.58-1.81-.61-1.91-.02-.05-.03-.09-.05-.09-.03,0-.05.05-.07.1-.03.08-.65,1.74-.69,1.9h1.43Z"></path><path class="cls-2" d="m55.66,25.05c0-.41-.01-1.1-.02-1.22-.01-.17-.05-.23-.24-.23h-.3s-.04-.03-.04-.06v-.14s0-.05.04-.05c.07,0,.3.02.84.02.63,0,.9-.02.96-.02.05,0,.06.02.06.05v.15s-.01.05-.06.05h-.39c-.2,0-.23.06-.23.25,0,.08-.02,1.06-.02,1.51v.56c0,.11,0,1.51.02,1.77.14.01,1.42.03,1.62,0,.38-.06.77-.83.86-1.09.01-.03.03-.04.05-.03l.1.04s.02.02.01.06c-.02.05-.28,1.11-.32,1.29-.08,0-.59-.01-1.16-.01-.58,0-1.21,0-1.56,0-.25,0-.44,0-.58,0-.13,0-.21.01-.25.01s-.05-.01-.05-.05v-.16s0-.05.05-.05h.31c.24,0,.28-.09.28-.17,0-.12.02-1.73.02-2.13v-.36Z"></path><path class="cls-2" d="m65.18,27.01c-.32.39-.78,1.03-1.61,1.03-.62,0-1.36-.39-1.36-1.14,0-.47.27-.85.52-1.09.22-.21.49-.38.75-.53-.45-.26-.67-.58-.67-.81,0-.51.67-1.11,1.05-1.11.48,0,.92.47.91.9-.01.34-.43.75-.71.89.45.24,1.04.79,1.37,1.26.21-.26.62-.87.64-1.05.01-.1-.06-.2-.2-.2h-.11s-.05-.02-.05-.05v-.14s0-.03.05-.03c.06,0,.41.02.63.02.24,0,.63-.02.67-.02s.04.02.04.05v.14s0,.05-.04.05h-.11c-.32,0-.39.03-.49.19-.05.07-.72,1.05-.89,1.24.1.11.4.46.49.54.16.17.46.48.87.48s.69-.45.71-.5c.01-.02.03-.03.05,0l.1.06s.01.03,0,.06c-.1.21-.45.82-1.2.82-.7,0-1.11-.67-1.39-1.03Zm-.14-.15c-.3-.42-.81-1.11-1.42-1.45-.47.26-.89.74-.87,1.27.01.54.58.97,1.07.97.63,0,1.05-.6,1.22-.79Zm-1.78-2.52c0,.24.36.52.66.71.16-.12.47-.32.47-.82,0-.22-.2-.65-.52-.65s-.6.38-.6.75Z"></path><path class="cls-2" d="m71.15,25c0-.48,0-.89,0-1.08,0-.21-.08-.32-.25-.32h-.26s-.04-.02-.04-.05v-.16s0-.05.04-.05c.06,0,.26.02.8.02.36,0,.96-.02,1.08-.02.54,0,.96.16,1.21.39.21.21.34.5.34.74,0,.81-.37,1.11-1.2,1.29h0c.16.07.25.19.3.26.08.08.54.74.59.83.03.06.45.65.57.74.14.1.29.11.47.11.05,0,.05.03.05.05v.14s0,.06-.05.06c-.05,0-.22-.02-.5-.02-.19,0-.43.01-.52.02-.07-.06-.21-.28-.27-.37-.05-.08-.4-.69-.43-.74-.03-.05-.34-.51-.41-.6-.17-.2-.32-.38-.7-.38-.06,0-.12,0-.21.02v.36c0,.38,0,1.11.01,1.2.01.14.06.25.16.25h.41s.05.02.05.05v.14s0,.06-.07.06c-.07,0-.23-.02-.85-.02s-.74.02-.81.02c-.05,0-.05-.02-.05-.05v-.15s0-.05.03-.05h.27c.14,0,.25-.05.25-.22.01-.64.01-1.25.01-1.86v-.63Zm.58.64c.1.02.17.03.29.03,1.18,0,1.4-.81,1.4-1.08,0-.3-.14-.58-.32-.74-.25-.2-.54-.3-1.07-.3-.08,0-.16.01-.22.05-.04.03-.08.1-.08.21v1.83Z"></path><path class="cls-2" d="m76.88,25.47c.05,0,.74-.03.82-.04.19-.03.24-.08.3-.28.02-.06.04-.19.05-.32,0-.03.02-.04.04-.04h.16s.04.03.04.06c-.02.11-.02.64-.02.74,0,.23.03.54.04.67,0,.03-.01.04-.04.05l-.14.02s-.05-.01-.05-.06c-.01-.08-.05-.23-.07-.3-.04-.14-.11-.23-.28-.25-.3-.03-.75-.03-.85-.03v.4c0,.35.01.98.01,1.11,0,.34.17.47.37.5.13.03.32.05.48.05.11,0,.43,0,.57-.02.11-.01.39-.08.56-.23.08-.06.44-.53.53-.68.02-.03.04-.06.08-.04l.1.06s.03.04.01.09l-.34.95c-.02.06-.06.1-.14.1-.03,0-.17,0-.56-.01-.39,0-1.02,0-2.02,0-.24,0-.42,0-.55,0-.14,0-.22.01-.28.01-.04,0-.06-.01-.06-.05v-.17s.02-.03.06-.03h.26c.3,0,.32-.05.32-.28v-2.17c0-.54-.01-1.35-.02-1.41-.03-.21-.09-.25-.33-.25h-.23s-.05,0-.05-.05v-.17s.01-.03.05-.03c.14,0,.37.02.8.02h.29c.64,0,1.28,0,1.92,0,.1,0,.23-.01.26-.01s.05.01.05.03c.03.09.31.98.33,1.04,0,.03,0,.04-.02.06l-.1.05s-.05,0-.05-.02c-.01-.03-.49-.64-.65-.74-.14-.09-.32-.17-.49-.17l-1.15-.03v1.9Z"></path><path class="cls-2" d="m81.22,27.71c-.08-.06-.12-.08-.15-.08-.04,0-.06.04-.1.11-.04.07-.07.08-.12.08-.04,0-.07-.03-.06-.1.03-.16.09-.98.11-1.17,0-.04.02-.04.05-.04h.1s.04.02.04.06c0,.21.02.42.23.75.19.3.55.48.91.48.39,0,.88-.24.88-.82,0-.67-.48-.91-1-1.09-.2-.07-.67-.23-.94-.52-.21-.21-.32-.52-.32-.94,0-.32.2-.64.4-.83.23-.22.56-.31.91-.31.37,0,.65.11.76.16.06.03.09.03.12,0l.08-.08s.05-.04.08-.04.05.05.05.11c0,.23.08.89.09,1.03,0,.03,0,.05-.03.05l-.08.02s-.03,0-.04-.02c-.05-.19-.14-.44-.4-.72-.17-.19-.4-.28-.71-.28-.58,0-.78.43-.78.76,0,.18.04.4.2.56.19.19.55.33.74.39.45.14.81.25,1.04.54.17.2.28.45.28.88,0,.76-.47,1.42-1.32,1.42-.45,0-.77-.14-1.03-.34Z"></path><path class="cls-2" d="m85.46,25.23c0-.16-.02-1.32-.03-1.42-.01-.16-.08-.22-.32-.22h-.38s-.05-.01-.05-.04v-.17s.02-.04.05-.04c.08,0,.41.02,1.01.02s.78-.02.87-.02c.03,0,.05.02.05.05v.16s-.02.05-.05.05h-.3c-.13,0-.23.05-.23.18,0,.06-.02,1.49-.02,1.57v.5c0,.06.02,1.56.02,1.63,0,.2.1.23.3.23h.27s.05.01.05.05v.17s-.02.04-.06.04c-.08,0-.34-.02-.9-.02-.61,0-.89.02-.96.02-.03,0-.05-.01-.05-.04v-.17s.02-.04.05-.04h.36c.13,0,.27-.02.29-.19.01-.1.03-1.49.03-1.84v-.45Z"></path><path class="cls-2" d="m88.59,24.98c0-.17-.02-1.09-.03-1.2-.02-.16-.1-.18-.28-.18h-.36s-.05,0-.05-.05v-.17s.02-.03.05-.03c.08,0,.37.02.95.02.17,0,.81-.02.96-.02.83,0,1.53.1,2.1.58.42.36.72.9.72,1.65s-.21,1.24-.64,1.7c-.62.69-1.51.69-2.01.69-.41,0-.9-.02-1.19-.02-.56,0-.82.02-.91.02-.03,0-.05-.01-.05-.05v-.17s.02-.04.05-.04h.43c.12,0,.19-.05.21-.16.02-.14.05-1.59.05-2.1v-.49Zm.6.63c0,.08,0,1.18.01,1.59,0,.13.03.23.11.36.1.14.36.21.69.21.66,0,1.2-.28,1.52-.7.27-.34.47-.87.47-1.46,0-.5-.22-1.09-.53-1.43-.34-.37-.91-.62-1.62-.62-.14,0-.41,0-.52.06-.09.06-.12.16-.12.3,0,.27,0,1.12,0,1.22v.46Z"></path><path class="cls-2" d="m95.11,25.47c.05,0,.74-.03.82-.04.19-.03.24-.08.3-.28.02-.06.04-.19.05-.32,0-.03.02-.04.04-.04h.16s.04.03.04.06c-.02.11-.02.64-.02.74,0,.23.03.54.04.67,0,.03-.01.04-.04.05l-.14.02s-.05-.01-.05-.06c-.01-.08-.05-.23-.07-.3-.04-.14-.11-.23-.28-.25-.3-.03-.75-.03-.85-.03v.4c0,.35.01.98.01,1.11,0,.34.17.47.37.5.13.03.32.05.48.05.11,0,.43,0,.57-.02.11-.01.39-.08.56-.23.08-.06.44-.53.53-.68.02-.03.04-.06.08-.04l.1.06s.03.04.01.09l-.34.95c-.02.06-.06.1-.14.1-.03,0-.17,0-.56-.01-.39,0-1.02,0-2.02,0-.24,0-.42,0-.55,0-.14,0-.22.01-.28.01-.04,0-.06-.01-.06-.05v-.17s.02-.03.06-.03h.26c.3,0,.32-.05.32-.28v-2.17c0-.54-.01-1.35-.02-1.41-.03-.21-.09-.25-.33-.25h-.23s-.05,0-.05-.05v-.17s.01-.03.05-.03c.14,0,.37.02.8.02h.29c.64,0,1.28,0,1.92,0,.1,0,.23-.01.26-.01s.05.01.05.03c.03.09.31.98.33,1.04,0,.03,0,.04-.02.06l-.1.05s-.05,0-.05-.02c-.01-.03-.49-.64-.65-.74-.14-.09-.32-.17-.49-.17l-1.15-.03v1.9Z"></path><path class="cls-2" d="m99.39,24.21c0-.38-.19-.59-.43-.6h-.27s-.04-.03-.04-.05v-.17s0-.04.04-.04.08,0,.18,0c.1,0,.24.01.46.01s.36-.01.43-.01c.08,0,.14.03.19.08.03.04,1.29,1.67,1.36,1.76.07.09,1.16,1.43,1.32,1.64h.03v-.77c0-.58,0-.89-.02-1.22,0-.25-.04-.89-.08-1-.05-.16-.17-.25-.36-.25h-.21s-.04-.01-.04-.05v-.17s.01-.04.04-.04c.09,0,.3.02.71.02.39,0,.54-.02.63-.02.04,0,.05.02.05.05v.16s-.01.05-.04.05h-.17c-.17,0-.24.11-.25.36-.03.43-.03,1.07-.03,1.49v2.42c0,.09,0,.16-.03.16-.08,0-.14-.08-.16-.1,0-.01-.39-.49-.79-1-.45-.56-.93-1.16-.96-1.2-.07-.06-1.26-1.56-1.3-1.61h-.04v1.44c0,.6.05,1.66.06,1.79.03.25.06.38.24.38h.19s.05.02.05.06v.14s0,.05-.05.05c-.06,0-.45-.02-.63-.02-.14,0-.58.02-.65.02-.03,0-.03-.01-.03-.05v-.17s0-.04.04-.04h.22c.19,0,.26-.08.29-.39.01-.12.03-.86.03-2.01v-1.1Z"></path><path class="cls-2" d="m106.23,23.6h-.16c-.21,0-.77,0-1.02.08-.29.09-.48.54-.58.75-.01.03-.03.04-.06.03l-.12-.03s-.04-.01-.03-.05c.06-.23.29-1.07.3-1.14.01-.08.04-.1.06-.1.03,0,.05,0,.08.03l.08.06c.12.08.18.1.37.11.34.01.61.04,1.22.04h.31c.71,0,.98-.03,1.3-.04.14,0,.23-.03.34-.09l.12-.08s.05-.03.08-.03c.03,0,.05.02.06.1.01.08.14.88.19,1.16,0,.03,0,.05-.04.05l-.1.03s-.03,0-.05-.05c-.05-.12-.25-.62-.46-.72-.19-.1-.8-.11-1.12-.11h-.18v1.84c0,.09,0,1.9,0,2.01.01.16.06.26.22.26h.41c.06,0,.06.02.06.06v.14s0,.05-.06.05c-.06,0-.27-.02-.91-.02s-.89.02-.98.02c-.05,0-.06-.03-.06-.06v-.12s0-.06.05-.06h.44c.13,0,.21-.08.21-.16.02-.19.02-2.17.02-2.3v-1.66Z"></path><path class="cls-2" d="m110.47,25.23c0-.16-.02-1.32-.03-1.42-.01-.16-.08-.22-.32-.22h-.38s-.05-.01-.05-.04v-.17s.02-.04.05-.04c.08,0,.41.02,1.01.02s.78-.02.87-.02c.03,0,.04.02.04.05v.16s-.02.05-.05.05h-.3c-.13,0-.23.05-.23.18,0,.06-.02,1.49-.02,1.57v.5c0,.06.02,1.56.02,1.63,0,.2.1.23.3.23h.27s.05.01.05.05v.17s-.02.04-.06.04c-.08,0-.34-.02-.9-.02-.61,0-.89.02-.96.02-.03,0-.05-.01-.05-.04v-.17s.02-.04.05-.04h.36c.13,0,.27-.02.29-.19.01-.1.03-1.49.03-1.84v-.45Z"></path><path class="cls-2" d="m114.03,26.15c-.06.16-.42,1.15-.45,1.28,0,.05-.02.11-.02.14,0,.09.08.14.22.14h.3s.06.01.06.05v.15s-.02.06-.05.06c-.09,0-.36-.02-.74-.02-.47,0-.61.02-.71.02-.03,0-.05-.01-.05-.05v-.16s.03-.05.05-.05h.23c.19,0,.29-.09.38-.3.05-.1.52-1.3.71-1.83.05-.13.57-1.52.63-1.7.02-.06.05-.15,0-.22-.02-.03-.05-.06-.05-.08,0-.02.01-.04.06-.06.18-.04.47-.23.54-.32.03-.03.05-.06.08-.06.04,0,.05.04.07.11.12.41.63,1.86.75,2.27.15.5.57,1.71.66,1.9.11.21.28.29.44.29h.21s.05.02.05.05v.16s-.02.05-.06.05c-.12,0-.25-.02-.78-.02s-.76.02-.91.02c-.03,0-.05-.02-.05-.06v-.15s.02-.05.06-.05h.16c.18,0,.24-.06.19-.25-.05-.23-.32-1.06-.41-1.32h-1.59Zm1.51-.23c-.06-.19-.58-1.81-.61-1.91-.02-.05-.03-.09-.05-.09-.03,0-.05.05-.07.1-.03.08-.65,1.74-.69,1.9h1.43Z"></path><path class="cls-2" d="m118.97,25.05c0-.41-.01-1.1-.02-1.22-.01-.17-.04-.23-.24-.23h-.3s-.05-.03-.05-.06v-.14s0-.05.05-.05c.07,0,.3.02.84.02.63,0,.9-.02.96-.02.05,0,.06.02.06.05v.15s-.01.05-.06.05h-.39c-.2,0-.23.06-.23.25,0,.08-.02,1.06-.02,1.51v.56c0,.11,0,1.51.02,1.77.14.01,1.42.03,1.62,0,.38-.06.77-.83.86-1.09.01-.03.03-.04.05-.03l.1.04s.02.02.01.06c-.02.05-.28,1.11-.32,1.29-.08,0-.59-.01-1.16-.01-.58,0-1.21,0-1.56,0-.25,0-.44,0-.58,0-.13,0-.21.01-.25.01s-.05-.01-.05-.05v-.16s0-.05.04-.05h.31c.24,0,.28-.09.28-.17,0-.12.02-1.73.02-2.13v-.36Z"></path><path class="cls-2" d="m126.74,26.23c0,.3,0,1.18.01,1.27.01.14.08.21.21.21h.41s.05.02.05.05v.16s0,.05-.06.05c-.09,0-.29-.02-.9-.02-.57,0-.82.02-.89.02-.05,0-.05-.02-.05-.05v-.16s0-.05.04-.05h.28c.22,0,.27-.03.28-.21,0-.06.03-1.07.03-1.82v-.74c0-.43,0-1.13-.01-1.2-.01-.13-.08-.14-.25-.14h-.37s-.04-.01-.04-.05v-.16s0-.05.04-.05c.07,0,.3.02.92.02.12,0,.5-.02.71-.02.73,0,1.07.07,1.44.32.3.21.49.57.49.94,0,.82-.61,1.32-1.64,1.32-.24,0-.5,0-.71-.03v.34Zm0-.57c.13.04.34.06.6.06.39,0,.74-.21.91-.44.14-.19.17-.43.17-.65,0-.85-.79-1.07-1.17-1.07-.11,0-.38,0-.5.05v2.06Z"></path><path class="cls-2" d="m130.76,26.15c-.06.16-.42,1.15-.45,1.28,0,.05-.02.11-.02.14,0,.09.08.14.22.14h.3s.06.01.06.05v.15s-.02.06-.05.06c-.09,0-.36-.02-.74-.02-.47,0-.61.02-.71.02-.03,0-.04-.01-.04-.05v-.16s.03-.05.05-.05h.23c.19,0,.28-.09.38-.3.05-.1.52-1.3.71-1.83.05-.13.57-1.52.63-1.7.02-.06.05-.15,0-.22-.02-.03-.05-.06-.05-.08,0-.02.01-.04.06-.06.18-.04.47-.23.54-.32.03-.03.05-.06.08-.06.04,0,.05.04.07.11.12.41.63,1.86.75,2.27.15.5.57,1.71.66,1.9.11.21.28.29.44.29h.21s.05.02.05.05v.16s-.02.05-.06.05c-.12,0-.25-.02-.78-.02s-.76.02-.91.02c-.03,0-.05-.02-.05-.06v-.15s.02-.05.06-.05h.16c.18,0,.24-.06.19-.25-.05-.23-.32-1.06-.41-1.32h-1.59Zm1.51-.23c-.06-.19-.58-1.81-.61-1.91-.02-.05-.03-.09-.05-.09-.03,0-.05.05-.07.1-.03.08-.65,1.74-.69,1.9h1.43Z"></path><path class="cls-2" d="m135.69,25.23c0-.16-.02-1.32-.03-1.42-.01-.16-.08-.22-.32-.22h-.38s-.05-.01-.05-.04v-.17s.02-.04.05-.04c.08,0,.41.02,1.01.02s.78-.02.87-.02c.03,0,.05.02.05.05v.16s-.02.05-.05.05h-.3c-.13,0-.23.05-.23.18,0,.06-.02,1.49-.02,1.57v.5c0,.06.02,1.56.02,1.63,0,.2.1.23.3.23h.27s.05.01.05.05v.17s-.02.04-.06.04c-.08,0-.34-.02-.9-.02-.61,0-.89.02-.96.02-.03,0-.05-.01-.05-.04v-.17s.02-.04.05-.04h.36c.13,0,.27-.02.29-.19.01-.1.03-1.49.03-1.84v-.45Z"></path><path class="cls-2" d="m138.77,24.21c0-.38-.19-.59-.43-.6h-.27s-.04-.03-.04-.05v-.17s0-.04.04-.04.08,0,.18,0c.1,0,.24.01.46.01s.36-.01.43-.01c.08,0,.14.03.19.08.03.04,1.29,1.67,1.36,1.76.07.09,1.16,1.43,1.32,1.64h.03v-.77c0-.58,0-.89-.02-1.22,0-.25-.04-.89-.08-1-.05-.16-.17-.25-.36-.25h-.21s-.04-.01-.04-.05v-.17s.01-.04.04-.04c.09,0,.3.02.71.02.39,0,.54-.02.63-.02.04,0,.05.02.05.05v.16s-.01.05-.04.05h-.17c-.17,0-.24.11-.25.36-.03.43-.03,1.07-.03,1.49v2.42c0,.09,0,.16-.03.16-.08,0-.14-.08-.16-.1,0-.01-.39-.49-.79-1-.45-.56-.93-1.16-.96-1.2-.07-.06-1.26-1.56-1.3-1.61h-.04v1.44c0,.6.05,1.66.06,1.79.03.25.06.38.24.38h.19s.05.02.05.06v.14s0,.05-.05.05c-.06,0-.45-.02-.63-.02-.14,0-.58.02-.65.02-.03,0-.03-.01-.03-.05v-.17s0-.04.04-.04h.22c.19,0,.26-.08.29-.39.01-.12.03-.86.03-2.01v-1.1Z"></path><path class="cls-2" d="m145.61,23.6h-.16c-.21,0-.77,0-1.02.08-.29.09-.48.54-.58.75-.01.03-.03.04-.06.03l-.12-.03s-.04-.01-.03-.05c.06-.23.29-1.07.3-1.14.01-.08.04-.1.06-.1.03,0,.05,0,.08.03l.08.06c.12.08.18.1.37.11.34.01.61.04,1.22.04h.31c.71,0,.98-.03,1.3-.04.14,0,.23-.03.34-.09l.12-.08s.05-.03.08-.03c.03,0,.05.02.06.1.01.08.14.88.19,1.16,0,.03,0,.05-.04.05l-.1.03s-.03,0-.05-.05c-.05-.12-.25-.62-.46-.72-.19-.1-.8-.11-1.12-.11h-.18v1.84c0,.09,0,1.9,0,2.01.01.16.06.26.22.26h.41c.06,0,.06.02.06.06v.14s0,.05-.06.05c-.06,0-.27-.02-.91-.02s-.89.02-.98.02c-.05,0-.06-.03-.06-.06v-.12s0-.06.05-.06h.44c.13,0,.21-.08.21-.16.02-.19.02-2.17.02-2.3v-1.66Z"></path><path class="cls-2" d="m149.85,25.23c0-.16-.02-1.32-.03-1.42-.01-.16-.08-.22-.32-.22h-.38s-.05-.01-.05-.04v-.17s.02-.04.05-.04c.08,0,.41.02,1.01.02s.78-.02.87-.02c.03,0,.04.02.04.05v.16s-.02.05-.05.05h-.3c-.13,0-.23.05-.23.18,0,.06-.02,1.49-.02,1.57v.5c0,.06.02,1.56.02,1.63,0,.2.1.23.3.23h.27s.05.01.05.05v.17s-.02.04-.06.04c-.08,0-.34-.02-.9-.02-.61,0-.89.02-.96.02-.03,0-.05-.01-.05-.04v-.17s.02-.04.05-.04h.36c.13,0,.27-.02.29-.19.01-.1.03-1.49.03-1.84v-.45Z"></path><path class="cls-2" d="m152.93,24.21c0-.38-.19-.59-.43-.6h-.27s-.04-.03-.04-.05v-.17s0-.04.04-.04.08,0,.18,0c.1,0,.24.01.46.01s.36-.01.43-.01c.08,0,.14.03.19.08.03.04,1.29,1.67,1.36,1.76.07.09,1.16,1.43,1.32,1.64h.03v-.77c0-.58,0-.89-.02-1.22,0-.25-.04-.89-.08-1-.05-.16-.17-.25-.36-.25h-.21s-.04-.01-.04-.05v-.17s.01-.04.04-.04c.09,0,.3.02.71.02.39,0,.54-.02.63-.02.05,0,.05.02.05.05v.16s-.01.05-.04.05h-.17c-.17,0-.24.11-.25.36-.03.43-.03,1.07-.03,1.49v2.42c0,.09,0,.16-.03.16-.08,0-.14-.08-.16-.1,0-.01-.39-.49-.79-1-.45-.56-.93-1.16-.96-1.2-.07-.06-1.26-1.56-1.3-1.61h-.04v1.44c0,.6.05,1.66.06,1.79.03.25.06.38.24.38h.19s.05.02.05.06v.14s0,.05-.05.05c-.06,0-.45-.02-.63-.02-.14,0-.58.02-.65.02-.03,0-.03-.01-.03-.05v-.17s0-.04.04-.04h.22c.19,0,.26-.08.29-.39.01-.12.03-.86.03-2.01v-1.1Z"></path><path class="cls-2" d="m161.81,26.52c0-.23-.07-.3-.27-.3h-.27s-.05-.01-.05-.04v-.16s0-.05.04-.05c.09,0,.38.02.82.02.47,0,.67-.02.76-.02.05,0,.05.02.05.05v.16s0,.05-.04.05h-.25c-.12,0-.2.05-.2.25v.85c0,.09.03.16.03.21s-.04.08-.1.1c-.52.27-1.04.41-1.77.41-.58,0-1.37-.21-1.81-.74-.39-.45-.6-1-.6-1.78,0-.59.25-1.22.73-1.64.46-.39,1.04-.61,1.82-.61.56,0,1.05.21,1.27.38.07.06.11.04.15,0l.1-.12s.05-.06.09-.06c.05,0,.06.03.06.08l.02,1.24s0,.06-.03.06h-.12s-.05,0-.05-.04c-.05-.18-.16-.49-.39-.76-.19-.24-.6-.53-1.18-.53-.45,0-.85.11-1.24.52-.35.37-.57.91-.57,1.49,0,.76.21,1.43.61,1.81.32.31.72.46,1.14.46.52,0,.83-.09,1.06-.22.15-.09.17-.23.17-.57v-.48Z"></path><path class="cls-2" d="m167.08,27.45c-.47-.44-.69-1.19-.69-1.81s.19-1.22.66-1.71c.33-.35.91-.65,1.62-.65.59,0,1.07.22,1.31.36.08.05.12.05.13,0l.05-.19s.03-.04.08-.04.07.01.07.1c0,.12.13,1.07.16,1.26,0,.03,0,.06-.03.06l-.1.03s-.05,0-.06-.05c-.09-.21-.23-.52-.5-.8-.27-.28-.61-.5-1.13-.5-1.16,0-1.62,1.03-1.62,1.97,0,.38.12,1.11.62,1.66.44.49.81.54,1.24.54.73,0,1.3-.4,1.6-.82.02-.03.03-.04.05-.02l.08.06s.03.03.01.06c-.39.56-1.02,1.09-1.93,1.09-.76,0-1.25-.24-1.64-.6Z"></path><path class="cls-2" d="m172.68,27.62c-.46-.28-.95-.98-.95-1.92,0-.39.1-1.01.6-1.61.57-.69,1.21-.82,1.75-.82.41,0,.94.08,1.45.51.47.41.89,1.04.89,1.93,0,.47-.15.96-.49,1.42-.39.52-.97.91-1.86.91-.32,0-.88-.1-1.39-.42Zm3.11-1.86c0-1.42-1.01-2.25-1.73-2.25-.1,0-.54-.08-1.02.38-.43.41-.65,1.07-.65,1.6,0,1.7,1.18,2.3,1.73,2.3,1.42,0,1.66-1.46,1.66-2.03Z"></path><path class="cls-2" d="m178.25,24.21c0-.38-.19-.59-.43-.6h-.27s-.04-.03-.04-.05v-.17s0-.04.04-.04.08,0,.18,0c.1,0,.24.01.46.01s.36-.01.43-.01c.08,0,.14.03.19.08.03.04,1.29,1.67,1.36,1.76.07.09,1.16,1.43,1.32,1.64h.03v-.77c0-.58,0-.89-.02-1.22,0-.25-.04-.89-.08-1-.05-.16-.17-.25-.36-.25h-.21s-.04-.01-.04-.05v-.17s.01-.04.04-.04c.09,0,.3.02.71.02.39,0,.54-.02.63-.02.04,0,.05.02.05.05v.16s-.01.05-.04.05h-.17c-.17,0-.24.11-.25.36-.03.43-.03,1.07-.03,1.49v2.42c0,.09,0,.16-.03.16-.08,0-.14-.08-.16-.1,0-.01-.39-.49-.79-1-.45-.56-.93-1.16-.96-1.2-.07-.06-1.26-1.56-1.3-1.61h-.04v1.44c0,.6.05,1.66.06,1.79.03.25.06.38.24.38h.19s.05.02.05.06v.14s0,.05-.05.05c-.06,0-.45-.02-.63-.02-.14,0-.58.02-.65.02-.03,0-.03-.01-.03-.05v-.17s0-.04.04-.04h.22c.19,0,.26-.08.29-.39.01-.12.03-.86.03-2.01v-1.1Z"></path><path class="cls-2" d="m185.09,23.6h-.16c-.21,0-.77,0-1.02.08-.29.09-.49.54-.58.75-.01.03-.03.04-.06.03l-.12-.03s-.04-.01-.03-.05c.06-.23.29-1.07.3-1.14.01-.08.04-.1.06-.1.03,0,.05,0,.08.03l.08.06c.12.08.18.1.37.11.34.01.61.04,1.22.04h.31c.71,0,.98-.03,1.3-.04.14,0,.23-.03.34-.09l.12-.08s.05-.03.08-.03c.03,0,.05.02.06.1.01.08.14.88.19,1.16,0,.03,0,.05-.04.05l-.1.03s-.03,0-.05-.05c-.05-.12-.25-.62-.46-.72-.19-.1-.8-.11-1.12-.11h-.18v1.84c0,.09,0,1.9,0,2.01.01.16.06.26.22.26h.41c.06,0,.06.02.06.06v.14s0,.05-.06.05c-.06,0-.27-.02-.91-.02s-.89.02-.98.02c-.05,0-.06-.03-.06-.06v-.12s0-.06.04-.06h.44c.13,0,.21-.08.21-.16.02-.19.02-2.17.02-2.3v-1.66Z"></path><path class="cls-2" d="m189.32,25c0-.48,0-.89,0-1.08,0-.21-.08-.32-.25-.32h-.26s-.04-.02-.04-.05v-.16s0-.05.04-.05c.06,0,.26.02.8.02.36,0,.96-.02,1.08-.02.54,0,.96.16,1.21.39.21.21.34.5.34.74,0,.81-.37,1.11-1.2,1.29h0c.16.07.25.19.3.26.08.08.54.74.59.83.03.06.45.65.57.74.14.1.29.11.47.11.05,0,.05.03.05.05v.14s0,.06-.05.06c-.05,0-.22-.02-.5-.02-.19,0-.43.01-.52.02-.07-.06-.21-.28-.27-.37-.05-.08-.4-.69-.43-.74-.03-.05-.34-.51-.41-.6-.17-.2-.32-.38-.7-.38-.06,0-.12,0-.21.02v.36c0,.38,0,1.11.01,1.2.01.14.06.25.16.25h.41s.05.02.05.05v.14s0,.06-.07.06c-.07,0-.23-.02-.85-.02s-.74.02-.81.02c-.05,0-.05-.02-.05-.05v-.15s0-.05.03-.05h.27c.14,0,.25-.05.25-.22.01-.64.01-1.25.01-1.86v-.63Zm.58.64c.1.02.17.03.29.03,1.18,0,1.4-.81,1.4-1.08,0-.3-.14-.58-.32-.74-.25-.2-.54-.3-1.07-.3-.08,0-.16.01-.22.05-.04.03-.08.1-.08.21v1.83Z"></path><path class="cls-2" d="m194.93,26.15c-.06.16-.42,1.15-.45,1.28,0,.05-.02.11-.02.14,0,.09.08.14.22.14h.3s.06.01.06.05v.15s-.02.06-.05.06c-.09,0-.36-.02-.74-.02-.47,0-.61.02-.71.02-.03,0-.04-.01-.04-.05v-.16s.03-.05.05-.05h.23c.19,0,.28-.09.38-.3.05-.1.52-1.3.71-1.83.05-.13.57-1.52.63-1.7.02-.06.05-.15,0-.22-.02-.03-.05-.06-.05-.08,0-.02.01-.04.06-.06.18-.04.47-.23.54-.32.03-.03.05-.06.08-.06.04,0,.05.04.07.11.12.41.63,1.86.75,2.27.15.5.57,1.71.66,1.9.11.21.28.29.44.29h.21s.05.02.05.05v.16s-.02.05-.06.05c-.12,0-.25-.02-.78-.02s-.76.02-.91.02c-.03,0-.05-.02-.05-.06v-.15s.02-.05.06-.05h.16c.18,0,.24-.06.19-.25-.05-.23-.32-1.06-.41-1.32h-1.59Zm1.51-.23c-.06-.19-.58-1.81-.61-1.91-.02-.05-.03-.09-.05-.09-.03,0-.05.05-.07.1-.03.08-.65,1.74-.69,1.9h1.43Z"></path><path class="cls-2" d="m199.7,27.45c-.47-.44-.69-1.19-.69-1.81s.19-1.22.66-1.71c.33-.35.91-.65,1.62-.65.59,0,1.07.22,1.31.36.08.05.12.05.13,0l.05-.19s.03-.04.08-.04.07.01.07.1c0,.12.13,1.07.16,1.26,0,.03,0,.06-.03.06l-.1.03s-.05,0-.06-.05c-.09-.21-.23-.52-.5-.8-.27-.28-.61-.5-1.13-.5-1.16,0-1.62,1.03-1.62,1.97,0,.38.12,1.11.62,1.66.44.49.81.54,1.24.54.73,0,1.3-.4,1.6-.82.02-.03.03-.04.05-.02l.08.06s.03.03.01.06c-.39.56-1.02,1.09-1.93,1.09-.76,0-1.25-.24-1.64-.6Z"></path><path class="cls-2" d="m206.09,23.6h-.16c-.21,0-.77,0-1.02.08-.29.09-.48.54-.58.75-.01.03-.03.04-.06.03l-.12-.03s-.04-.01-.03-.05c.06-.23.29-1.07.3-1.14.01-.08.04-.1.06-.1.03,0,.05,0,.08.03l.08.06c.12.08.18.1.37.11.34.01.61.04,1.22.04h.31c.71,0,.98-.03,1.3-.04.14,0,.23-.03.34-.09l.12-.08s.05-.03.08-.03c.03,0,.05.02.06.1.01.08.14.88.19,1.16,0,.03,0,.05-.04.05l-.1.03s-.03,0-.05-.05c-.05-.12-.25-.62-.46-.72-.19-.1-.8-.11-1.12-.11h-.18v1.84c0,.09,0,1.9,0,2.01.01.16.06.26.22.26h.41c.06,0,.06.02.06.06v.14s0,.05-.06.05c-.06,0-.27-.02-.91-.02s-.89.02-.98.02c-.05,0-.06-.03-.06-.06v-.12s0-.06.05-.06h.44c.13,0,.21-.08.21-.16.02-.19.02-2.17.02-2.3v-1.66Z"></path><path class="cls-2" d="m210.56,27.62c-.46-.28-.95-.98-.95-1.92,0-.39.1-1.01.6-1.61.57-.69,1.21-.82,1.75-.82.41,0,.94.08,1.45.51.47.41.89,1.04.89,1.93,0,.47-.15.96-.49,1.42-.39.52-.97.91-1.86.91-.32,0-.88-.1-1.39-.42Zm3.11-1.86c0-1.42-1.01-2.25-1.73-2.25-.1,0-.54-.08-1.02.38-.43.41-.65,1.07-.65,1.6,0,1.7,1.18,2.3,1.73,2.3,1.42,0,1.66-1.46,1.66-2.03Z"></path><path class="cls-2" d="m216.15,25c0-.48,0-.89,0-1.08,0-.21-.08-.32-.25-.32h-.26s-.04-.02-.04-.05v-.16s0-.05.04-.05c.06,0,.26.02.8.02.36,0,.96-.02,1.08-.02.54,0,.96.16,1.21.39.21.21.34.5.34.74,0,.81-.37,1.11-1.2,1.29h0c.16.07.25.19.3.26.08.08.54.74.59.83.03.06.45.65.57.74.14.1.29.11.47.11.05,0,.05.03.05.05v.14s0,.06-.05.06c-.05,0-.22-.02-.5-.02-.19,0-.43.01-.52.02-.07-.06-.21-.28-.27-.37-.05-.08-.4-.69-.43-.74-.03-.05-.34-.51-.41-.6-.17-.2-.32-.38-.7-.38-.06,0-.12,0-.21.02v.36c0,.38,0,1.11.01,1.2.01.14.06.25.16.25h.41s.05.02.05.05v.14s0,.06-.07.06c-.07,0-.23-.02-.85-.02s-.74.02-.81.02c-.05,0-.05-.02-.05-.05v-.15s0-.05.03-.05h.27c.14,0,.25-.05.25-.22.01-.64.01-1.25.01-1.86v-.63Zm.58.64c.1.02.17.03.29.03,1.18,0,1.4-.81,1.4-1.08,0-.3-.14-.58-.32-.74-.25-.2-.54-.3-1.07-.3-.08,0-.16.01-.22.05-.04.03-.08.1-.08.21v1.83Z"></path><path class="cls-2" d="m221.19,27.71c-.08-.06-.12-.08-.15-.08-.04,0-.06.04-.1.11-.04.07-.07.08-.12.08-.04,0-.07-.03-.06-.1.03-.16.09-.98.11-1.17,0-.04.02-.04.05-.04h.1s.04.02.04.06c0,.21.02.42.23.75.19.3.55.48.91.48.39,0,.88-.24.88-.82,0-.67-.48-.91-1-1.09-.2-.07-.67-.23-.94-.52-.21-.21-.32-.52-.32-.94,0-.32.2-.64.4-.83.23-.22.56-.31.91-.31.37,0,.65.11.76.16.06.03.09.03.12,0l.08-.08s.05-.04.08-.04.05.05.05.11c0,.23.08.89.09,1.03,0,.03,0,.05-.03.05l-.08.02s-.03,0-.04-.02c-.05-.19-.14-.44-.4-.72-.17-.19-.4-.28-.71-.28-.58,0-.78.43-.78.76,0,.18.04.4.2.56.19.19.55.33.74.39.45.14.81.25,1.04.54.17.2.28.45.28.88,0,.76-.47,1.42-1.32,1.42-.45,0-.77-.14-1.03-.34Z"></path></g><rect class="cls-2" x="3.39" y="18.52" width="221.74" height=".93"></rect></svg>